<svg width="45" height="50" viewBox="0 0 45 50" fill="none" xmlns="http://www.w3.org/2000/svg">
<g clip-path="url(#clip0_120_5496)">
<path d="M36.5149 50.0003C36.9436 49.9867 37.3715 49.9626 37.8004 49.953C40.0021 49.9037 42.3382 49.8391 44.6726 49.9112C44.6109 49.1347 44.5781 48.2937 44.5876 47.363C44.6399 42.2721 45.6762 38.9812 41.6401 31.5549C41.6055 31.4912 41.5408 31.6573 41.4916 31.7038C41.4726 31.721 41.45 31.7336 41.4254 31.7406C41.4008 31.7477 41.3748 31.749 41.3497 31.7444C41.3245 31.7398 41.3007 31.7295 41.2801 31.7142C41.2596 31.699 41.2428 31.6792 41.2311 31.6564C40.3007 29.9664 33.0316 17.382 21.5556 14.8025C21.5163 14.7942 21.4753 14.8001 21.4398 14.8191C21.4044 14.8382 21.3769 14.8693 21.3623 14.9067C21.3476 14.9442 21.3467 14.9856 21.3598 15.0236C21.3728 15.0617 21.3989 15.0939 21.4335 15.1145C25.4834 17.4411 40.4615 27.6968 36.5149 50.0003Z" fill="#6B3132"/>
<path d="M14.6972 26.4974C2.9062 19.7933 0 2.65886 0 2.65886C0 2.65886 16.2107 -3.60627 28.0016 3.09781C39.7925 9.80181 42.6987 26.9363 42.6987 26.9363C42.6987 26.9363 26.488 33.2014 14.6972 26.4974Z" fill="#9EC117"/>
</g>
<defs>
<clipPath id="clip0_120_5496">
<rect width="44.7443" height="50" fill="white"/>
</clipPath>
</defs>
</svg>
