<svg width="41" height="50" viewBox="0 0 41 50" fill="none" xmlns="http://www.w3.org/2000/svg">
<g clip-path="url(#clip0_120_5481)">
<path d="M36.3768 24.2178C33.2921 25.9913 29.6377 25.4347 29.6377 25.4347C29.6377 25.4347 30.9848 22.0028 34.0695 20.2293C37.1543 18.4559 40.8087 19.0125 40.8087 19.0125C40.8087 19.0125 39.4616 22.4444 36.3768 24.2178Z" fill="#008D31"/>
<path d="M37.1459 15.8636C34.9437 18.6533 31.3438 19.4911 31.3438 19.4911C31.3438 19.4911 31.3143 15.8059 33.5165 13.0162C35.7187 10.2265 39.3187 9.38867 39.3187 9.38867C39.3187 9.38867 39.3481 13.0739 37.1459 15.8636Z" fill="#9EC117"/>
<path d="M3.18642 15.8636C5.38863 18.6533 8.98859 19.4911 8.98859 19.4911C8.98859 19.4911 9.01806 15.8059 6.81585 13.0162C4.61365 10.2265 1.01369 9.38867 1.01369 9.38867C1.01369 9.38867 0.984219 13.0739 3.18642 15.8636Z" fill="#9EC117"/>
<path d="M29.7493 13.1297C27.9445 16.1899 24.4908 17.504 24.4908 17.504C24.4908 17.504 23.9631 13.8564 25.7679 10.7961C27.5727 7.73589 31.0265 6.42188 31.0265 6.42188C31.0265 6.42188 31.5541 10.0695 29.7493 13.1297Z" fill="#008D31"/>
<path d="M25.0505 6.51851C24.9014 10.0654 22.4734 12.8443 22.4734 12.8443C22.4734 12.8443 20.287 9.87267 20.436 6.32583C20.5851 2.77899 23.0131 0 23.0131 0C23.0131 0 25.1995 2.97168 25.0505 6.51851Z" fill="#9EC117"/>
<path d="M19.4548 6.51851C19.3057 10.0654 16.8777 12.8443 16.8777 12.8443C16.8777 12.8443 14.6912 9.87267 14.8403 6.32583C14.9893 2.77899 17.4174 0 17.4174 0C17.4174 0 19.6038 2.97168 19.4548 6.51851Z" fill="#9EC117"/>
<path d="M10.5384 13.1297C12.3433 16.1899 15.797 17.504 15.797 17.504C15.797 17.504 16.3246 13.8564 14.5198 10.7961C12.715 7.73589 9.26129 6.42188 9.26129 6.42188C9.26129 6.42188 8.73363 10.0695 10.5384 13.1297Z" fill="#008D31"/>
<path d="M4.43184 24.2178C7.51663 25.9913 11.171 25.4347 11.171 25.4347C11.171 25.4347 9.82392 22.0028 6.73914 20.2293C3.65436 18.4559 0 19.0125 0 19.0125C0 19.0125 1.34706 22.4444 4.43184 24.2178Z" fill="#008D31"/>
<path d="M23.0136 19.4818C23.0136 23.8977 20.141 27.4774 20.141 27.4774C20.141 27.4774 17.2686 23.8977 17.2686 19.4818C17.2686 15.0661 20.141 11.4863 20.141 11.4863C20.141 11.4863 23.0136 15.0661 23.0136 19.4818Z" fill="#008D31"/>
<path d="M30.2268 31.8257C26.6767 32.1033 23.6182 30.0334 23.6182 30.0334C23.6182 30.0334 26.3154 27.5132 29.8655 27.2356C33.4155 26.9579 36.474 29.0279 36.474 29.0279C36.474 29.0279 33.7768 31.548 30.2268 31.8257Z" fill="#008D31"/>
<path d="M29.057 22.9956C27.4575 26.1673 24.0976 27.7044 24.0976 27.7044C24.0976 27.7044 23.3311 24.0991 24.9307 20.9275C26.5302 17.7558 29.8901 16.2188 29.8901 16.2188C29.8901 16.2188 30.6566 19.824 29.057 22.9956Z" fill="#9EC117"/>
<path d="M11.4366 23.2573C13.0361 26.429 16.396 27.9661 16.396 27.9661C16.396 27.9661 17.1625 24.3608 15.5629 21.1892C13.9634 18.0175 10.6035 16.4805 10.6035 16.4805C10.6035 16.4805 9.83701 20.0857 11.4366 23.2573Z" fill="#9EC117"/>
<path d="M10.5031 31.8211C6.9595 31.4699 4.31543 28.8944 4.31543 28.8944C4.31543 28.8944 7.41648 26.8883 10.96 27.2395C14.5035 27.5908 17.1476 30.1663 17.1476 30.1663C17.1476 30.1663 14.0466 32.1724 10.5031 31.8211Z" fill="#008D31"/>
<path d="M20.141 29.1572C19.7537 29.1566 19.3815 29.3065 19.1034 29.5752C18.8252 29.8438 18.6632 30.21 18.6516 30.5959C18.5267 34.7131 17.6306 46.4727 11.5283 49.9998H28.7537C22.6514 46.4727 21.7553 34.7131 21.6304 30.5959C21.6188 30.21 21.4567 29.8438 21.1786 29.5752C20.9005 29.3065 20.5282 29.1566 20.141 29.1572Z" fill="#6B3132"/>
</g>
<defs>
<clipPath id="clip0_120_5481">
<rect width="40.8088" height="50" fill="white"/>
</clipPath>
</defs>
</svg>
