<svg width="63" height="50" viewBox="0 0 63 50" fill="none" xmlns="http://www.w3.org/2000/svg">
<g clip-path="url(#clip0_120_5504)">
<path d="M36.7437 14.8842C36.7437 23.1046 31.4128 29.7684 31.4128 29.7684C31.4128 29.7684 26.082 23.1046 26.082 14.8842C26.082 6.66391 31.4128 0 31.4128 0C31.4128 0 36.7437 6.66391 36.7437 14.8842Z" fill="#008D31"/>
<path d="M29.6175 13.8282C33.0027 21.3192 30.8892 29.587 30.8892 29.587C30.8892 29.587 23.2872 25.7097 19.9019 18.2188C16.5167 10.7279 18.6303 2.45996 18.6303 2.45996C18.6303 2.45996 26.2323 6.33732 29.6175 13.8282Z" fill="#9EC117"/>
<path d="M22.689 15.7997C28.8588 21.2318 30.3376 29.6365 30.3376 29.6365C30.3376 29.6365 21.8133 29.2338 15.6436 23.8017C9.47396 18.3694 7.99512 9.96484 7.99512 9.96484C7.99512 9.96484 16.5194 10.3674 22.689 15.7997Z" fill="#008D31"/>
<path d="M17.1875 20.4499C25.0468 22.8592 29.8556 29.9092 29.8556 29.9092C29.8556 29.9092 21.9219 33.0526 14.0626 30.6432C6.20325 28.2338 1.39453 21.1839 1.39453 21.1839C1.39453 21.1839 9.32824 18.0405 17.1875 20.4499Z" fill="#9EC117"/>
<path d="M14.0894 26.9529C22.2435 25.9119 29.5288 30.3561 29.5288 30.3561C29.5288 30.3561 23.5936 36.4878 15.4395 37.5287C7.28531 38.5696 0 34.1256 0 34.1256C0 34.1256 5.9352 27.9939 14.0894 26.9529Z" fill="#008D31"/>
<path d="M33.0924 13.8282C29.7071 21.3192 31.8206 29.587 31.8206 29.587C31.8206 29.587 39.4228 25.7097 42.808 18.2188C46.1932 10.7279 44.0797 2.45996 44.0797 2.45996C44.0797 2.45996 36.4776 6.33731 33.0924 13.8282Z" fill="#9EC117"/>
<path d="M40.0206 15.7997C33.8509 21.2318 32.3721 29.6365 32.3721 29.6365C32.3721 29.6365 40.8963 29.2338 47.066 23.8017C53.2357 18.3694 54.7146 9.96484 54.7146 9.96484C54.7146 9.96484 46.1903 10.3674 40.0206 15.7997Z" fill="#008D31"/>
<path d="M45.5225 20.4499C37.6632 22.8592 32.8545 29.9092 32.8545 29.9092C32.8545 29.9092 40.7882 33.0526 48.6475 30.6432C56.5068 28.2338 61.3155 21.1839 61.3155 21.1839C61.3155 21.1839 53.3818 18.0405 45.5225 20.4499Z" fill="#9EC117"/>
<path d="M48.621 26.9529C40.4669 25.9119 33.1816 30.3561 33.1816 30.3561C33.1816 30.3561 39.1168 36.4878 47.271 37.5287C55.4252 38.5696 62.7105 34.1256 62.7105 34.1256C62.7105 34.1256 56.7752 27.9939 48.621 26.9529Z" fill="#008D31"/>
<path d="M28.2451 49.9998V29.5864C28.2451 28.7463 28.5788 27.9407 29.1728 27.3467C29.7668 26.7527 30.5725 26.4189 31.4125 26.4189C32.2526 26.4189 33.0582 26.7527 33.6523 27.3467C34.2463 27.9407 34.58 28.7463 34.58 29.5864V49.9998H28.2451Z" fill="white"/>
<path d="M31.4124 27.4746C30.8524 27.4746 30.3153 27.6971 29.9193 28.0931C29.5233 28.4891 29.3008 29.0262 29.3008 29.5862V48.9438H33.524V29.5862C33.524 29.0262 33.3015 28.4891 32.9055 28.0931C32.5095 27.6971 31.9724 27.4746 31.4124 27.4746Z" fill="#4B2926"/>
</g>
<defs>
<clipPath id="clip0_120_5504">
<rect width="62.7105" height="50" fill="white"/>
</clipPath>
</defs>
</svg>
