<svg width="30" height="30" viewBox="0 0 30 30" fill="none" xmlns="http://www.w3.org/2000/svg">
<path d="M15 0C10.8645 0 7.5 3.3645 7.5 7.5V10.5H6C4.3455 10.5 3 11.8455 3 13.5V27C3 28.6545 4.3455 30 6 30H24C25.6545 30 27 28.6545 27 27V13.5C27 11.8455 25.6545 10.5 24 10.5H22.5V7.5C22.5 3.3645 19.1355 0 15 0ZM10.5 7.5C10.5 5.019 12.519 3 15 3C17.481 3 19.5 5.019 19.5 7.5V10.5H10.5V7.5ZM24.003 27H16.5V23.583C17.3925 23.0625 18 22.1055 18 21C18 19.3455 16.6545 18 15 18C13.3455 18 12 19.3455 12 21C12 22.104 12.6075 23.0625 13.5 23.583V27H6V13.5H24L24.003 27V27Z" fill="#FEBF32"/>
</svg>
