<svg width="45" height="50" viewBox="0 0 45 50" fill="none" xmlns="http://www.w3.org/2000/svg">
<g clip-path="url(#clip0_120_5499)">
<path d="M10.5352 22.8454C10.5352 22.8454 26.0618 30.1273 18.7616 49.9997H29.4545C29.4545 49.9997 25.0598 40.2702 33.0944 31.0123C33.0944 31.0123 28.7065 32.4653 25.9577 38.3101C25.9577 38.3101 27.9723 23.2141 25.9577 9.33105C25.9577 9.33105 26.1842 30.9107 23.2345 33.3304C23.2345 33.3304 18.4195 24.1359 10.5352 22.8454Z" fill="#6B3132"/>
<path d="M33.0945 31.0125C26.8491 31.0125 21.7861 24.8207 21.7861 24.8207C21.7861 24.8207 26.8491 18.6289 33.0945 18.6289C39.34 18.6289 44.4029 24.8207 44.4029 24.8207C44.4029 24.8207 39.34 31.0125 33.0945 31.0125Z" fill="#9EC117"/>
<path d="M28.3335 14.906C20.8159 14.906 14.7217 7.45299 14.7217 7.45299C14.7217 7.45299 20.8159 0 28.3335 0C35.8511 0 41.9453 7.45299 41.9453 7.45299C41.9453 7.45299 35.8511 14.906 28.3335 14.906Z" fill="#9EC117"/>
<path d="M11.3084 23.4304C5.06289 23.4304 0 17.2386 0 17.2386C0 17.2386 5.06289 11.0469 11.3084 11.0469C17.5538 11.0469 22.6167 17.2386 22.6167 17.2386C22.6167 17.2386 17.5538 23.4304 11.3084 23.4304Z" fill="#9EC117"/>
</g>
<defs>
<clipPath id="clip0_120_5499">
<rect width="44.403" height="50" fill="white"/>
</clipPath>
</defs>
</svg>
