<svg width="100" height="86" viewBox="0 0 100 86" fill="none" xmlns="http://www.w3.org/2000/svg">
<path d="M12.7645 51.6714H2.26015C1.01169 51.6714 0 52.6831 0 53.9315V58.3011V77.4801V81.8497C0 83.0982 1.01169 84.1099 2.26015 84.1099H12.7645C14.0129 84.1099 15.0246 83.0982 15.0246 81.8497V77.4801V58.3011V53.9315C15.0246 52.6831 14.0129 51.6714 12.7645 51.6714Z" fill="#FEBF32"/>
<path d="M33.9881 39.1218H23.4838C22.2353 39.1218 21.2236 40.1335 21.2236 41.382V58.3008V64.9306V81.8494C21.2236 83.0978 22.2353 84.1095 23.4838 84.1095H33.9881C35.2365 84.1095 36.2482 83.0978 36.2482 81.8494V64.9306V58.3008V41.382C36.2482 40.1335 35.2365 39.1218 33.9881 39.1218Z" fill="#FEBF32"/>
<path d="M57.4731 45.8164V27.1325H64.7271C66.0617 27.1325 66.8796 25.6688 66.1693 24.528L51.403 0.807196C50.7357 -0.269065 49.1644 -0.269065 48.4971 0.807196L33.7308 24.528C33.0205 25.6688 33.8384 27.1325 35.173 27.1325H42.427V81.8496C42.427 83.0981 43.4387 84.1098 44.6871 84.1098H55.1914C56.4399 84.1098 57.4516 83.0981 57.4516 81.8712C53.2326 77.0495 50.6711 70.7426 50.6711 63.833C50.6711 56.945 53.2326 50.6381 57.4731 45.8164Z" fill="#FEBF32"/>
<path d="M78.114 42.3291C66.2321 42.3291 56.6104 51.9509 56.6104 63.8328C56.6104 75.7147 66.2321 85.3365 78.114 85.3365C89.996 85.3365 99.6177 75.7147 99.6177 63.8328C99.6177 51.9509 89.996 42.3291 78.114 42.3291ZM84.2918 72.3353C83.3447 73.4761 82.1393 74.251 80.6971 74.6384C80.0728 74.8107 79.793 75.1335 79.8361 75.7793C79.8576 76.4035 79.8361 77.0493 79.8361 77.695C79.8361 78.2547 79.5562 78.556 78.9966 78.5776C78.3078 78.5991 77.619 78.5991 76.9517 78.5776C76.349 78.556 76.0691 78.2332 76.0691 77.652C76.0691 77.1784 76.0691 76.7264 76.0476 76.2528C76.0476 75.2196 76.0046 75.1766 75.0144 75.0259C73.7444 74.8322 72.5175 74.5308 71.3551 73.9712C70.4511 73.5407 70.365 73.3039 70.6233 72.3568C70.817 71.6464 71.0107 70.9361 71.226 70.2473C71.4843 69.4293 71.6995 69.3432 72.4529 69.7307C73.7229 70.398 75.079 70.7639 76.4996 70.9361C77.4252 71.0437 78.3078 70.9576 79.1473 70.5917C80.7186 69.9029 80.9769 68.0733 79.6423 66.9755C79.1903 66.6095 78.6737 66.3297 78.1356 66.0929C76.758 65.4902 75.2942 65.0167 74.0027 64.2418C71.8717 62.9718 70.5372 61.2282 70.6878 58.6452C70.86 55.7178 72.5175 53.8881 75.2081 52.9195C76.3059 52.5105 76.3274 52.5321 76.3274 51.3697C76.3274 50.9822 76.3274 50.5948 76.3274 50.2073C76.349 49.3248 76.4996 49.1956 77.3607 49.1526C77.619 49.1526 77.8988 49.1526 78.1571 49.1526C80.0083 49.1526 80.0083 49.1526 80.0083 51.0038C80.0083 52.3168 80.0083 52.3168 81.3213 52.5105C82.3115 52.6612 83.2801 52.9626 84.1842 53.3715C84.7008 53.5868 84.8945 53.9527 84.7223 54.4909C84.4855 55.2873 84.2702 56.0837 84.0119 56.8801C83.7752 57.6335 83.5384 57.7412 82.8065 57.3968C81.3643 56.7079 79.8576 56.4066 78.2647 56.4927C77.8557 56.5142 77.4468 56.5788 77.0593 56.751C75.6817 57.3537 75.4664 58.882 76.6288 59.8076C77.2315 60.2811 77.8988 60.6255 78.6091 60.9269C79.8361 61.422 81.063 61.9171 82.2038 62.5628C85.8846 64.5431 86.8748 69.171 84.2918 72.3353Z" fill="#FEBF32"/>
<circle cx="78.0299" cy="63.8231" r="16.2515" fill="#FEBF32"/>
<path d="M71.251 55.7515H85.0271" stroke="white" stroke-width="4.19425" stroke-linecap="round" stroke-linejoin="round"/>
<path d="M71.251 61.4912H85.0271" stroke="white" stroke-width="3.25169" stroke-linecap="round" stroke-linejoin="round"/>
<path d="M71.251 67.2319L81.0091 76.416" stroke="white" stroke-width="3.25169" stroke-linecap="round" stroke-linejoin="round"/>
<path d="M71.251 67.2319H74.695" stroke="white" stroke-width="3.25169" stroke-linecap="round" stroke-linejoin="round"/>
<path d="M74.6953 67.2316C82.3491 67.2316 82.3491 55.7515 74.6953 55.7515" stroke="white" stroke-width="3.25169" stroke-linecap="round" stroke-linejoin="round"/>
</svg>
