<svg width="30" height="30" viewBox="0 0 30 30" fill="none" xmlns="http://www.w3.org/2000/svg">
<path d="M28.0414 1.77683V1.52307C28.0414 0.685357 27.3562 0 26.5184 0H3.48214C2.64443 0 1.95898 0.685357 1.95898 1.52307V1.77683C1.95898 2.61455 2.64434 3.29991 3.48214 3.29991H4.07068C4.37298 3.29991 4.34906 3.58208 4.34906 3.72632C4.34906 5.41817 5.0427 7.37388 5.57432 8.62341C6.64049 11.1292 9.06779 13.1849 11.0603 14.6365C11.424 14.9015 11.3368 15.1475 11.1256 15.3167C9.19303 16.8648 6.65215 18.8434 5.57441 21.3765C5.05108 22.6063 4.37091 24.5204 4.34966 26.1936C4.3475 26.3652 4.41625 26.6999 4.00599 26.6999H3.48223C2.64451 26.6999 1.95907 27.3854 1.95907 28.223V28.4769C1.95907 29.3146 2.64443 30 3.48223 30H26.5186C27.3563 30 28.0416 29.3146 28.0416 28.4769V28.223C28.0416 27.3854 27.3563 26.6999 26.5186 26.6999H26.189C25.5844 26.6999 25.6426 26.2472 25.6489 26.0126C25.691 24.4498 25.2315 22.6723 24.5591 21.3369C23.0633 18.3666 20.7044 16.4775 19.2517 15.3846C18.9364 15.1475 18.9046 14.854 19.2517 14.6153C20.7495 13.585 23.0633 11.6333 24.5591 8.66297C25.275 7.24095 25.7497 5.31763 25.6342 3.68616C25.6251 3.55539 25.616 3.29991 25.9588 3.29991H26.5186C27.3563 3.29991 28.0414 2.61464 28.0414 1.77683ZM23.344 8.0512C21.9522 10.8149 19.7192 12.7914 17.7769 13.9823C17.6599 14.0541 17.4369 14.2312 17.4369 14.7253V15.3159C17.4369 15.8398 17.6746 15.9548 17.7996 16.0316C19.7417 17.224 21.9578 19.1959 23.3439 21.9487C23.9842 23.2207 24.3169 24.7585 24.284 25.9824C24.2773 26.237 24.375 26.7 23.7128 26.7H6.27315C5.69014 26.7 5.7139 26.4089 5.71528 26.2497C5.72538 25.136 6.10939 23.5932 6.82593 21.9092C8.07002 18.9851 10.6806 17.1598 12.4185 16.0724C12.4959 16.024 12.6456 15.9371 12.6456 15.4746V14.5905C12.6456 14.1125 12.4161 13.9264 12.2951 13.8503C10.5592 12.7544 8.04083 10.9466 6.82593 8.09093C6.10188 6.38924 5.71744 4.83196 5.71511 3.71561C5.71493 3.5693 5.73333 3.29999 6.05722 3.29999H23.9C24.26 3.29999 24.2565 3.57206 24.2683 3.71708C24.3705 4.98199 24.038 6.6728 23.344 8.0512Z" fill="#FEBF32"/>
<path d="M14.6439 16.9458L8.70604 24.3764C8.50998 24.6218 8.60654 24.8225 8.92059 24.8225H21.08C21.3942 24.8225 21.4908 24.6218 21.2946 24.3764L15.3569 16.9458C15.1608 16.7004 14.84 16.7004 14.6439 16.9458Z" fill="#FEBF32"/>
<path d="M14.5959 13.4926C14.8184 13.7144 15.1823 13.7144 15.4046 13.4926L18.391 10.5137C18.6133 10.2919 18.5384 10.1104 18.2241 10.1104H11.7762C11.4621 10.1104 11.387 10.2919 11.6093 10.5137L14.5959 13.4926Z" fill="#FEBF32"/>
</svg>
