<svg width="101" height="51" viewBox="0 0 101 51" fill="none" xmlns="http://www.w3.org/2000/svg">
<path d="M25.0782 25.0371C25.0782 33.5062 31.9645 40.3924 40.4335 40.3924C48.9026 40.3924 55.7888 33.5062 55.7888 25.0371C55.7888 16.5681 48.9026 9.68184 40.4335 9.68184C31.9645 9.68184 25.0782 16.5681 25.0782 25.0371ZM48.2859 21.6248L41.4202 28.4494L38.419 31.43L35.4384 28.4288L32.5606 25.551L35.5618 22.5704L38.4396 25.4482L45.3053 18.6237L48.2859 21.6248ZM0 43.0647V7.00957C0 3.14506 3.14506 0 7.00957 0H73.8574C77.722 0 80.867 3.14506 80.867 7.00957V9.12683H76.2214C73.7958 9.12683 71.843 11.1002 71.843 13.5052V14.6769C68.5335 14.0603 66.0462 11.1824 66.0462 7.70847C66.0462 7.11235 66.1284 6.53678 66.2518 5.98177H14.2041C14.2864 6.41345 14.3275 6.84512 14.3275 7.2768C14.3275 11.203 11.1413 14.3686 7.23569 14.3686C6.80401 14.3686 6.39289 14.3275 5.98178 14.2658V35.8084C6.39289 35.7468 6.80401 35.7056 7.23569 35.7056C11.1619 35.7056 14.3275 38.8713 14.3275 42.7974C14.3275 43.2497 14.2864 43.6813 14.2041 44.0925H57.7827L57.7622 46.6414V49.3959C57.7622 49.622 57.8033 49.8687 57.8238 50.0948H7.00957C3.14506 50.0742 0 46.9292 0 43.0647ZM86.191 46.6208V49.3753C86.191 49.7659 85.8827 50.0742 85.4921 50.0742H76.2008C75.8103 50.0742 75.5019 49.7659 75.5019 49.3753V46.6208C75.5019 46.2303 75.8103 45.9219 76.2008 45.9219H85.4921C85.8827 45.9425 86.191 46.2508 86.191 46.6208ZM86.191 41.1119V43.8663C86.191 44.2569 85.8827 44.5653 85.4921 44.5653H76.2008C75.8103 44.5653 75.5019 44.2569 75.5019 43.8663V41.1119C75.5019 40.7213 75.8103 40.413 76.2008 40.413H85.4921C85.8827 40.413 86.191 40.7213 86.191 41.1119ZM86.191 35.5823V38.3368C86.191 38.7274 85.8827 39.0357 85.4921 39.0357H76.2008C75.8103 39.0357 75.5019 38.7274 75.5019 38.3368V35.5823C75.5019 35.1918 75.8103 34.8834 76.2008 34.8834H85.4921C85.8827 34.904 86.191 35.2123 86.191 35.5823ZM86.191 30.0733V32.8278C86.191 33.2184 85.8827 33.5267 85.4921 33.5267H76.2008C75.8103 33.5267 75.5019 33.2184 75.5019 32.8278V30.0733C75.5019 29.6828 75.8103 29.3744 76.2008 29.3744H85.4921C85.8827 29.3744 86.191 29.6828 86.191 30.0733ZM86.191 24.5438V27.2983C86.191 27.6888 85.8827 27.9972 85.4921 27.9972H76.2008C75.8103 27.9972 75.5019 27.6888 75.5019 27.2983V24.5438C75.5019 24.1532 75.8103 23.8449 76.2008 23.8449H85.4921C85.8827 23.8654 86.191 24.1738 86.191 24.5438ZM86.191 19.0348V21.7893C86.191 22.1798 85.8827 22.4882 85.4921 22.4882H76.2008C75.8308 22.4882 75.5225 22.1798 75.5225 21.7893V19.0348C75.5225 18.6442 75.8308 18.3359 76.2214 18.3359H85.5127C85.8827 18.3359 86.191 18.6442 86.191 19.0348ZM86.191 13.5052V16.2597C86.191 16.6503 85.8827 16.9586 85.4921 16.9586H76.2008C75.8103 16.9586 75.5019 16.6503 75.5019 16.2597V13.5258C75.5019 13.1352 75.8103 12.8269 76.2008 12.8269H85.4921C85.8827 12.8269 86.191 13.1352 86.191 13.5052ZM100.395 46.6208V49.3753C100.395 49.7659 100.087 50.0742 99.6963 50.0742H90.405C90.0144 50.0742 89.7061 49.7659 89.7061 49.3753V46.6208C89.7061 46.2303 90.0144 45.9219 90.405 45.9219H99.6963C100.087 45.9425 100.395 46.2508 100.395 46.6208ZM100.395 41.1119V43.8663C100.395 44.2569 100.087 44.5653 99.6963 44.5653H90.405C90.0144 44.5653 89.7061 44.2569 89.7061 43.8663V41.1119C89.7061 40.7213 90.0144 40.413 90.405 40.413H99.6963C100.087 40.413 100.395 40.7213 100.395 41.1119ZM100.395 35.5823V38.3368C100.395 38.7274 100.087 39.0357 99.6963 39.0357H90.405C90.0144 39.0357 89.7061 38.7274 89.7061 38.3368V35.5823C89.7061 35.1918 90.0144 34.8834 90.405 34.8834H99.6963C100.087 34.904 100.395 35.2123 100.395 35.5823ZM71.9869 46.6414V49.3959C71.9869 49.7865 71.6785 50.0948 71.288 50.0948H61.9967C61.6061 50.0948 61.2978 49.7865 61.2978 49.3959V46.6414C61.2978 46.2508 61.6061 45.9425 61.9967 45.9425H71.288C71.6785 45.9425 71.9869 46.2508 71.9869 46.6414ZM71.9869 43.8663C71.9869 44.2569 71.6785 44.5653 71.288 44.5653H61.9967C61.6061 44.5653 61.2978 44.2569 61.2978 43.8663V41.1119C61.2978 40.7213 61.6061 40.413 61.9967 40.413H71.288C71.6785 40.413 71.9869 40.7213 71.9869 41.1119V43.8663ZM71.9869 38.3368C71.9869 38.7274 71.6785 39.0357 71.288 39.0357H61.9967C61.6061 39.0357 61.2978 38.7274 61.2978 38.3368V35.5823C61.2978 35.1918 61.6061 34.8834 61.9967 34.8834H71.288C71.6785 34.8834 71.9869 35.1918 71.9869 35.5823V38.3368ZM71.9869 32.8278C71.9869 33.2184 71.6785 33.5267 71.288 33.5267H61.9967C61.6061 33.5267 61.2978 33.2184 61.2978 32.8278V30.0733C61.2978 29.6828 61.6061 29.3744 61.9967 29.3744H71.288C71.6785 29.3744 71.9869 29.6828 71.9869 30.0733V32.8278ZM71.9869 27.2983C71.9869 27.6888 71.6785 27.9972 71.288 27.9972H61.9967C61.6061 27.9972 61.2978 27.6888 61.2978 27.2983V24.5438C61.2978 24.1532 61.6061 23.8449 61.9967 23.8449H71.288C71.6785 23.8449 71.9869 24.1532 71.9869 24.5438V27.2983ZM18.1098 20.782C20.4531 20.782 22.3649 22.6937 22.3649 25.0371C22.3649 27.3805 20.4531 29.2922 18.1098 29.2922C15.7664 29.2922 13.8547 27.3805 13.8547 25.0371C13.8547 22.6937 15.7458 20.782 18.1098 20.782Z" fill="#FEBF32"/>
</svg>
